<?xml version="1.0" encoding="UTF-8"?>
<svg id="Layer_2" fill="#ff2121" data-name="Layer 2" xmlns="http://www.w3.org/2000/svg" viewBox="0 0 209.17 201.93">
  <g id="Layer_1-2" data-name="Layer 1">
    <g>
      <path d="M0,77.35c0-3.95,0-7.89,0-11.84,.09-.4,.2-.79,.26-1.19,1.76-12.08,7.03-22.36,15.85-30.78,6.58-6.28,14.35-10.48,23.15-12.77,2.04-.53,3.8-.04,5.19,1.5,1.4,1.56,1.64,3.39,.83,5.32-.37,.88-.79,1.73-1.18,2.6-3.77,8.43-5.84,17.23-5.73,26.5,.04,2.96,1.78,4.9,4.32,4.96,2.48,.06,4.33-1.91,4.54-4.81,.17-2.31,.23-4.63,.54-6.91,1.99-14.4,8.39-26.49,19.4-35.98C79.55,3.27,94.06-1.28,110.27,.31c14.2,1.39,26.3,7.46,36.02,18.02,1.04,1.13,2.15,1.49,3.63,1.23,4.8-.86,9.6-.69,14.4,.04,28.38,4.33,47.99,29.93,44.43,58.25-2.11,16.79-10.67,29.59-25,38.45-2.24,1.39-3,2.81-2.98,5.33,.11,11.16,.08,22.31,.02,33.47-.03,4.99-1.85,6.87-6.51,6.87-46.53,.01-93.06,.01-139.59,0-4.49,0-6.28-1.85-6.28-6.35,0-11.56-.04-23.13,.05-34.69,.01-1.94-.57-3.06-2.29-4.03-7.49-4.21-13.51-10.03-18.16-17.26-4.38-6.81-6.87-14.3-8.01-22.28Zm161.11,24.54c.07-4.13-1.33-6.05-3.96-6.37-2.45-.3-4.43,1.45-4.86,4.63-.71,5.24-3.01,9.82-5.64,14.29-2.28,3.87-4.96,7.46-7.54,11.12-1.69,2.4-1.23,5,.87,6.48,1.96,1.38,4.63,.92,6.32-1.19,4.05-5.04,7.65-10.4,10.55-16.18,2.16-4.32,3.96-8.79,4.26-12.79Zm-113.24-.83c-.06,1.32,.25,2.78,.65,4.22,2.72,9.83,8.26,18.1,14.51,25.95,1.5,1.88,4.25,2.1,6.06,.76,1.9-1.41,2.4-3.81,1.05-5.99-1.07-1.73-2.42-3.27-3.55-4.97-4.31-6.51-8.8-12.93-9.91-20.97-.42-3.05-2.33-4.77-4.73-4.55-2.63,.24-4.12,2.19-4.08,5.55Zm61.05,13.22c0-4.01,0-8.02,0-12.03,0-.68,0-1.36-.02-2.04-.13-2.79-1.89-4.68-4.35-4.72-2.45-.04-4.4,1.87-4.42,4.63-.06,9.17-.05,18.35-.03,27.52,0,3.33,1.65,5.15,4.46,5.13,2.77-.02,4.33-1.86,4.35-5.24,.03-4.42,0-8.83,.01-13.25Z"/>
      <path d="M28.41,174.39H180.59c0,15.2-12.34,27.54-27.54,27.54H55.94c-15.2,0-27.54-12.34-27.54-27.54h0Z"/>
    </g>
  </g>
</svg>