<svg fill="#ff2121" viewBox="0 0 72 72">
  <path d="M16.59,25.72c-1.25-1.73-.11-3.45,.69-5.06,.51-1.03,1.07-2.04,1.71-2.99,1.92-2.85,3.95-5.06,7.32-1.27-.48-1.71-.98-3.42-1.42-5.14-1.15-4.46,1.24-9.2,5.39-10.9,1.26-.51,2.34-.73,2.43,1.04,.3,5.81,3.44,10.52,5.85,15.53,.56,1.16,.85,2.48,1.14,3.76,.39,1.75,.15,3.36-1.83,4-2.28,.75-2.78-1.08-3.38-2.59-.36-.91-.37-1.97-1.75-2.81-2.8,3.65-6.03,7.06-11.1,7.48-1.77,.15-3.8,.66-5.05-1.05Z"/>
  <path d="M43.83,22.05c-.76-3.78-2.93-7.53-.29-11.39,.86-1.25,1.85-2.5,3.54-2.17,1.45,.28,1.24,1.72,1.43,2.83,.67,3.86,3.46,6.69,4.93,10.16,1.3,3.09,.69,5.15-2.92,5.42-3.33-.29-5.98-1.27-6.69-4.85Z"/>
  <path d="M38.56,52.5c-.79-4.36,1.47-8.05,2.8-11.92,.78,4.41-1.21,8.11-2.8,11.92Z"/>
  <path d="M51.01,49.79c-.45-1.4,1.18-2.32,1.17-1.76-.13,1,1.54,.81,1.76,1.17,.48,.72-.36,1.59-1.16,1.76-.81,.16-1.6-.36-1.77-1.17Z"/>
  <path d="M71.31,45.13c-.07-.75-.21-1.5-.46-2.23,0,0,0-.03-.01-.04-.29-.87-.71-1.72-1.31-2.54-.53-.73-1.65-1.52-2.44-1.46-3.23,.23-6.55-2.48-9.75,.59-1.12,1.08-2.98,.43-4.19-.09-.04-2.56,4.02-3.2,2.02-5.82-1.57-2.06-3.45-.47-5.32,.14-1.96,.65-4-.5-5.33-1.75-2.25-2.12-3.97-1.35-6.12-.03-2.86,1.76-5.9,3.26-8.86,4.87-.18-.29-.36-.58-.54-.88,.41-.49,.85-.97,1.23-1.49,.83-1.11,2.66-2.12,1.28-3.7-1.27-1.47-3.1-.85-4.54,0-1.26,.75-2.35,1.78-3.46,2.75-2.27,1.99-4,3.31-6.65-.13-1.7-2.21-4.66-.21-6.7,1.04-2.06,1.26-4.45,2.66-3.94,5.69,.25,1.44,1.36,2.23,2.98,1.57,.72-.29,1.57-.97,1.83,.45,.17,.89-.04,1.51-1.08,1.83-1.57,.49-3.16,1.02-4.57,1.83C1.91,47.75-.1,51.46,0,55.09c.01,.85,.15,1.7,.41,2.52,.28,.88,.7,1.66,1.25,2.35,1.85,2.36,5.19,3.49,9.31,2.65,2.79-.56,4.73,.39,6.9,1.61,13.22,7.43,28.32,5.74,39.33-4.48,1.8-1.67,3.49-2.71,6.06-2.62,3.03,.1,5.69-1.39,6.82-3.8,.17-.37,.31-.77,.41-1.18,.38-1.65,.76-3.37,.85-5.11,.03-.71,.02-1.34-.03-1.9Zm-3.88,.91c-.9,1.62-3.02,3.16-.1,4.87,.09,.06,0,.68-.17,.94-2.31,3.35-5.96,.54-8.95,1.8-1.59,.67-1.42-.71-1.18-2.2l.06-1.24c-2.52,3.92-5.79,4.42-10.65,4.6-6.68,.24-13.7,.78-20.22,2.26-6.33,1.43-6.87-.65-5.73-5.96-.84,.59-1.34,.76-1.36,.98-.58,7.21-6.55,6.41-11.18,7.37-2.2,.46-4.35-.5-4.85-2.89-.65-3.09,1.08-5.3,3.7-6.74,1.89-1.03,3.92-1.52,5.84-.12,.77,.56,.77,1.55,.28,2.35-.48,.75-1.19,1.36-2.16,1.05-.84-.28-1.58-2.63-2.42-.1-.36,1.09-.67,2.54,.75,3.2,1.19,.54,2.47,.13,3.3-.88,2.54-3.09,3.17-7.02,3.31-10.68,.08-2.62-.76-5.08,2.87-4.7,3.52,.37,2.04,3.29,1.95,5.36-.03,.66-.3,1.31-.63,2.63,5.36-1.36,6.66,1.06,4.86,5.91,2.39-.9,2.06-2.74,2.41-4.02,.56-2.01,1.57-3.29,3.6-2.74,2.41,.65,.92,2.41,.69,3.79-.1,.64,0,1.32,0,3.49,2.72-4.94,4.25-8.79,3.52-13.03-.32-1.8-.03-2.97,1.49-3.1,2.8-.23,5.63-.64,8.41-.75,2.86-.1,2.1,2.56,1.84,4.36-.44,3.16-2.4,6.03-1.82,10.79,1.98-5.22,4.32-8.73,9.24-8.17,3.26,.37,2.98,3.29,2.97,5.74h.03c.05-.06,.08-.11,.11-.16-.01,.05-.02,.1-.03,.16,1.99,.04,3.35,.05,1.76-2.78-1.59-2.85,.51-3.91,2.91-3.17,1.31,.39,2.1,1.6,3.2-.2,.45-.75,1.34-1.2,2.16-.42,.72,.67,.64,1.63,.2,2.4Zm-35.94-2c-.14,.76-1.15,1-1.86,.66-.69-.32-.74-1.08-.67-1.85,.11-1.07,3.02-1.72,2.53,1.19Z"/>
  <rect x="31.99" y="77.3" width="5.49" height="17.63" rx="2.74" ry="2.74"/>
  <rect x="47.68" y="68.75" width="5.49" height="17.63" rx="2.74" ry="2.74" transform="translate(-42.01 73.58) rotate(-54.5)"/>
  <rect x="16.22" y="68.75" width="5.49" height="17.63" rx="2.74" ry="2.74" transform="translate(-33.18 138.05) rotate(-125.5)"/>
</svg>